<svg width="56" height="56" viewBox="0 0 56 56" fill="none" xmlns="http://www.w3.org/2000/svg">
<rect width="56" height="56" rx="2" fill="#FAFAFA"/>
<path d="M28.16 26.87C28.06 26.86 27.94 26.86 27.83 26.87C25.45 26.79 23.56 24.84 23.56 22.44C23.56 19.99 25.54 18 28 18C30.45 18 32.44 19.99 32.44 22.44C32.43 24.84 30.54 26.79 28.16 26.87Z" stroke="#8C8FA5" stroke-width="1.5" stroke-linecap="round" stroke-linejoin="round"/>
<path d="M23.16 30.56C20.74 32.18 20.74 34.82 23.16 36.43C25.91 38.27 30.42 38.27 33.17 36.43C35.59 34.81 35.59 32.17 33.17 30.56C30.43 28.73 25.92 28.73 23.16 30.56Z" stroke="#8C8FA5" stroke-width="1.5" stroke-linecap="round" stroke-linejoin="round"/>
</svg>
