<svg width="110" height="60" viewBox="0 0 110 60" fill="none" xmlns="http://www.w3.org/2000/svg">
<path opacity="0.99" d="M71.1252 34.8107C71.1252 32.095 71.1037 29.3794 71.1333 26.6646C71.1513 25.0492 71.6493 23.5666 72.5306 22.2016C73.2109 21.1489 74.0482 20.256 75.0569 19.5264C76.1913 18.7052 77.4387 18.1165 78.7993 17.7656C79.1807 17.6669 79.5836 17.6435 79.9408 17.4479C80.0153 17.4066 80.1194 17.4138 80.211 17.412C80.5583 17.4057 80.9056 17.412 81.2529 17.4021C83.8456 17.3267 86.1457 18.1712 88.174 19.7256C89.7176 20.9093 90.8448 22.4305 91.4344 24.3169C91.7278 25.2556 91.9791 26.2051 91.9495 27.1905C91.9028 28.7404 91.4999 30.2104 90.7505 31.5709C89.6161 33.6314 87.9343 35.0925 85.7733 35.9998C84.1157 36.6962 82.3881 36.9331 80.5933 36.7976C79.5235 36.7168 78.4968 36.4997 77.5034 36.1057C77.34 36.0411 77.2718 36.1111 77.262 36.2672C77.2557 36.3686 77.2566 36.4709 77.2566 36.5732C77.2566 38.7172 77.2602 40.8603 77.2539 43.0043C77.2503 44.1916 76.6625 45.0253 75.6986 45.6805C74.995 46.1588 74.2196 46.2189 73.481 46.052C72.8456 45.9084 72.2587 45.5037 71.8252 44.9607C71.3505 44.3666 71.1154 43.6971 71.119 42.9253C71.1315 40.2204 71.1234 37.5147 71.1234 34.8098H71.1243L71.1252 34.8107ZM76.877 27.1761C76.8285 27.8142 76.973 28.4056 77.2584 28.9594C78.1307 30.6483 79.537 31.5377 81.4234 31.6167C82.5901 31.6651 83.6311 31.2442 84.5187 30.4958C86.0551 29.1999 86.4823 27.4947 85.8846 25.7824C84.98 23.1924 82.1503 21.9037 79.572 23.0901C77.8543 23.8807 76.9128 25.2511 76.8778 27.1761H76.877Z" fill="#1680E4"/>
<path opacity="0.99" d="M54.2715 39.8928C54.2715 40.9339 54.2778 41.9758 54.2697 43.0168C54.2598 44.2023 53.6765 45.0379 52.7063 45.6858C52.0108 46.1498 51.2444 46.2234 50.5139 46.0547C49.8794 45.9075 49.2862 45.5144 48.8527 44.9724C48.4121 44.4213 48.1868 43.8093 48.1886 43.0832C48.203 37.5595 48.1931 32.0357 48.2003 26.512C48.2021 24.9155 48.7226 23.4813 49.5895 22.1486C50.4179 20.8752 51.4723 19.8422 52.7647 19.0597C53.9242 18.3579 55.186 17.9136 56.5052 17.5816C57.6324 17.298 58.7542 17.4272 59.876 17.4326C60.3364 17.4344 60.7959 17.6543 61.2554 17.779C63.1355 18.287 64.8057 19.1754 66.1644 20.5826C67.2099 21.6649 68.0122 22.9007 68.4654 24.3608C69.0075 26.1073 69.0667 27.8582 68.5704 29.6055C67.8695 32.069 66.3816 33.9554 64.1963 35.2881C62.9533 36.0464 61.6036 36.54 60.1623 36.7321C58.905 36.899 57.6405 36.8972 56.3858 36.645C55.7549 36.5185 55.1303 36.3776 54.5389 36.1146C54.3029 36.0096 54.2769 36.1703 54.276 36.3399C54.2733 36.9214 54.2742 37.5039 54.2742 38.0854C54.2742 38.6876 54.2742 39.2898 54.2742 39.8928H54.2715ZM53.9035 27.2048C53.8443 27.7855 53.9843 28.3868 54.2706 28.953C55.133 30.6582 56.5599 31.5072 58.4347 31.6184C59.3824 31.675 60.2448 31.3474 61.0382 30.852C63.1185 29.5516 63.8813 26.8387 62.3395 24.6758C61.0875 22.9195 59.0764 22.2393 56.9539 22.9195C55.3331 23.4392 53.7698 25.2673 53.9026 27.2048H53.9035Z" fill="#1680E4"/>
<path opacity="0.99" d="M109.987 29.5619C109.987 32.5737 109.967 35.5856 110 38.5965C110.008 39.423 109.843 40.1867 109.577 40.9523C109.12 42.2625 108.317 43.3314 107.271 44.2118C106.515 44.8489 105.613 45.268 104.67 45.5445C103.508 45.8846 102.334 46.1807 101.094 46.0964C99.1288 45.9636 97.2819 45.4933 95.7365 44.2145C94.6703 43.3323 93.8186 42.2625 93.3529 40.9361C92.8332 39.4571 93.8204 37.9674 95.3927 37.8166C96.3288 37.7269 97.1778 37.9216 97.9029 38.5453C98.2224 38.8199 98.5033 39.1331 98.69 39.511C99.2203 40.5816 100.08 41.1928 101.259 41.2843C102.791 41.4037 104.332 40.3258 104.537 38.5956C104.614 37.9431 104.576 37.2907 104.585 36.6383C104.59 36.2945 104.527 36.2595 104.207 36.3753C102.596 36.9586 100.946 37.1372 99.2401 36.9218C97.9594 36.7603 96.8358 36.2874 95.9088 35.398C95.2447 34.7599 94.7807 33.9764 94.4962 33.0987C94.1256 31.9545 93.9748 30.778 93.9811 29.5736C93.9945 27.164 93.9847 24.7552 93.9838 22.3456C93.9838 21.5505 93.9748 20.7553 93.9344 19.9602C93.8877 19.0323 94.4083 18.4256 95.1675 17.9679C95.8944 17.5299 96.703 17.5533 97.4596 17.6888C98.4808 17.8719 99.4671 18.7855 99.4528 20.0239C99.4187 23.0456 99.442 26.0673 99.4375 29.089C99.4375 29.4174 99.4662 29.7423 99.5291 30.0627C99.7606 31.2366 100.503 31.898 101.7 31.9868C102.378 32.0371 103.022 31.9249 103.584 31.5013C104.296 30.9637 104.514 30.1892 104.52 29.3663C104.541 26.2728 104.536 23.1793 104.519 20.0867C104.515 19.5249 104.653 19.0323 105.002 18.6114C105.475 18.0397 106.079 17.6852 106.839 17.6493C107.063 17.6385 107.288 17.6457 107.513 17.6475C108.622 17.6574 109.402 18.1806 109.894 19.1642C109.986 19.3482 109.988 19.5366 109.988 19.7305C109.988 23.0079 109.988 26.2845 109.988 29.5619H109.987Z" fill="#1680E4"/>
<path opacity="0.99" d="M45.8209 27.4924C45.8209 30.2287 45.8209 32.965 45.8209 35.7013C45.8209 36.5943 45.3838 37.0286 44.4855 37.0295C43.2901 37.0295 42.0956 37.0322 40.9002 37.0295C40.1445 37.0277 39.6725 36.5611 39.6725 35.8108C39.6707 30.2458 39.6707 24.6816 39.6725 19.1166C39.6725 18.3654 40.1436 17.897 40.8975 17.8952C42.1126 17.8916 43.3287 17.8925 44.5438 17.8952C45.3515 17.8961 45.82 18.3601 45.8209 19.1624C45.8227 21.94 45.8209 24.7166 45.8209 27.4942V27.4924Z" fill="#1680E4"/>
<path d="M42.7976 16.5049C41.4416 16.5076 40.2983 15.7089 39.9097 14.5216C39.364 12.8514 40.6725 11.0099 42.4665 10.9102C43.6027 10.8474 44.5396 11.2315 45.2055 12.1577C46.2645 13.6313 45.5752 15.6748 43.8243 16.3155C43.477 16.443 43.1216 16.5291 42.7976 16.5049Z" fill="#00A89C"/>
<path opacity="0.99" d="M72.2867 51.3151C72.2867 50.7766 72.2867 50.2382 72.2867 49.7006C72.2867 49.1702 72.2939 48.6398 72.2841 48.1094C72.2796 47.8716 72.3747 47.7846 72.6107 47.7899C73.6248 47.8115 73.4561 47.658 73.4606 48.6183C73.4696 50.9651 73.4624 53.311 73.4669 55.6578C73.4669 55.9935 73.4965 56.33 73.5162 56.6656C73.5279 56.8586 73.4471 56.934 73.2506 56.9447C72.5156 56.9851 72.5174 56.9905 72.4205 56.2672C72.4106 56.1918 72.4402 56.102 72.3505 56.0311C72.1126 56.2779 71.9035 56.5561 71.5984 56.7303C70.4874 57.3638 69.1672 57.1251 68.3344 56.1379C67.2602 54.8636 67.3957 52.4145 68.6045 51.2666C69.3952 50.5164 70.5906 50.3216 71.532 50.7883C71.8003 50.9211 72.0319 51.0997 72.2867 51.316V51.3151ZM72.2832 53.8046C72.2832 53.8046 72.2814 53.8046 72.2805 53.8046C72.2805 53.539 72.2939 53.2733 72.2778 53.0086C72.2365 52.3409 71.7869 51.7557 71.1793 51.5583C70.5017 51.3384 69.7856 51.5394 69.3485 52.0707C68.6656 52.9027 68.6117 54.5459 69.239 55.4173C69.6707 56.0177 70.3752 56.251 71.112 56.0383C71.7537 55.8534 72.2571 55.1992 72.2823 54.5073C72.2903 54.2731 72.2841 54.0379 72.2841 53.8037L72.2832 53.8046Z" fill="#1680E4"/>
<path opacity="0.99" d="M38.891 53.7792C38.8829 54.9737 38.5087 55.9986 37.4309 56.6295C35.6306 57.684 32.9805 56.8736 32.8108 54.1337C32.7498 53.1519 32.9482 52.2392 33.6311 51.4898C34.4505 50.5906 35.8173 50.2945 37.0172 50.736C38.0968 51.1336 38.8354 52.1881 38.891 53.4113C38.8964 53.5333 38.891 53.6563 38.891 53.7783V53.7792ZM33.9847 53.7532C33.9955 54.4146 34.1256 54.9737 34.4792 55.4637C35.1478 56.3899 36.4455 56.4321 37.1374 55.5535C37.8482 54.6506 37.8904 53.0999 37.2307 52.1557C36.6124 51.2718 35.4053 51.165 34.6533 51.9359C34.1426 52.4591 34.0107 53.1214 33.9847 53.7541V53.7532Z" fill="#1680E4"/>
<path opacity="0.99" d="M57.5615 54.0463C56.9486 54.0463 56.3356 54.0535 55.7227 54.0427C55.457 54.0382 55.3574 54.1136 55.4068 54.4017C55.5979 55.5199 56.289 56.1203 57.426 56.1383C57.9609 56.1463 58.4895 56.1194 58.9921 55.9166C59.1671 55.8457 59.2487 55.8942 59.3008 56.0763C59.474 56.6812 59.4632 56.7171 58.8664 56.8804C58.1485 57.077 57.4153 57.1389 56.682 57.0124C55.2856 56.771 54.3649 55.7335 54.2661 54.3191C54.2087 53.4998 54.3137 52.71 54.7184 51.9777C55.4463 50.6612 57.1424 50.1407 58.4572 50.8389C58.9553 51.1036 59.2927 51.5209 59.5054 52.0361C59.7271 52.5718 59.8132 53.1318 59.7908 53.7134C59.7809 53.9656 59.6714 54.0517 59.4309 54.049C58.8081 54.0409 58.1844 54.0463 57.5615 54.0472V54.0463ZM57.0258 53.1821C57.4646 53.1821 57.9044 53.1704 58.3423 53.1866C58.6313 53.1973 58.7112 53.0852 58.6331 52.8204C58.6017 52.7136 58.5909 52.5996 58.5613 52.492C58.3656 51.7884 57.8828 51.4455 57.1541 51.407C56.1561 51.3549 55.5764 52.1994 55.4274 52.9909C55.3897 53.1902 55.5217 53.1812 55.6473 53.1821C56.1068 53.183 56.5663 53.1821 57.0258 53.1821Z" fill="#1680E4"/>
<path opacity="0.99" d="M78.1946 54.0464C77.5817 54.0464 76.9687 54.0527 76.3558 54.0438C76.0937 54.0393 76.0192 54.1335 76.0623 54.3947C76.2481 55.5147 76.9418 56.1195 78.0753 56.1384C78.6101 56.1474 79.1387 56.1231 79.6413 55.9185C79.8378 55.8386 79.9123 55.9086 79.9617 56.0989C80.1196 56.702 80.1214 56.7118 79.53 56.8797C78.8533 57.0717 78.1578 57.1292 77.4659 57.0367C76.0219 56.8438 75.0778 55.8512 74.9306 54.3884C74.8454 53.5394 74.9594 52.7173 75.3865 51.9581C76.1162 50.6595 77.8042 50.1471 79.1073 50.8354C79.6162 51.1046 79.9572 51.5309 80.1708 52.0577C80.3844 52.5854 80.4696 53.1355 80.4472 53.7063C80.4382 53.9522 80.3413 54.0527 80.0945 54.0491C79.4609 54.0411 78.8282 54.0464 78.1946 54.0464ZM77.6642 53.1822C78.0627 53.1822 78.4603 53.1822 78.8587 53.1822C79.1938 53.1822 79.3293 53.0174 79.2653 52.6877C79.2455 52.5881 79.2222 52.4876 79.1899 52.3916C78.9835 51.7714 78.5123 51.4528 77.859 51.4089C76.818 51.338 76.2481 52.1789 76.0865 52.974C76.0497 53.1562 76.1404 53.184 76.2858 53.184C76.7453 53.1813 77.2048 53.184 77.6642 53.184V53.1822Z" fill="#1680E4"/>
<path opacity="0.99" d="M96.7255 54.0464C96.1027 54.0464 95.479 54.0518 94.8562 54.0438C94.6147 54.0411 94.5304 54.1227 94.569 54.374C94.7422 55.5021 95.4485 56.1195 96.5963 56.1375C97.1312 56.1456 97.6598 56.1177 98.1623 55.9149C98.3409 55.8431 98.4172 55.8997 98.4684 56.0783C98.6398 56.684 98.6317 56.7163 98.0304 56.8806C97.3125 57.0762 96.5792 57.1381 95.846 57.0116C94.4514 56.7702 93.5297 55.7292 93.4328 54.3157C93.3763 53.4963 93.4822 52.7066 93.8869 51.9743C94.6156 50.6586 96.3127 50.139 97.6266 50.839C98.1246 51.1046 98.4612 51.522 98.6739 52.0371C98.8955 52.5738 98.9808 53.1338 98.9584 53.7144C98.9485 53.9693 98.8336 54.05 98.5949 54.0473C97.9721 54.0393 97.3484 54.0447 96.7255 54.0447V54.0464ZM96.1718 53.1822C96.6008 53.1822 97.0289 53.1831 97.4578 53.1822C97.8509 53.1813 97.8626 53.1688 97.7908 52.782C97.7648 52.642 97.7378 52.5002 97.6912 52.3664C97.4848 51.7705 97.0226 51.4573 96.4042 51.4098C95.3183 51.3254 94.7619 52.1834 94.5977 52.9695C94.5609 53.1472 94.6435 53.184 94.7933 53.1831C95.2528 53.1804 95.7123 53.1822 96.1718 53.1831V53.1822Z" fill="#1680E4"/>
<path opacity="0.99" d="M107.098 55.4781C107.231 55.3031 107.238 55.1344 107.289 54.9819C107.738 53.6465 108.187 52.3111 108.626 50.973C108.697 50.7567 108.802 50.6436 109.04 50.6679C109.182 50.6822 109.326 50.6706 109.469 50.6706C109.978 50.6706 109.984 50.6733 109.805 51.1336C109.086 52.9788 108.428 54.8473 107.65 56.6691C107.285 57.5243 106.877 58.3625 106.169 59.0051C105.832 59.3111 105.449 59.5373 105.024 59.6988C104.82 59.7769 104.687 59.7365 104.639 59.5094C104.637 59.4996 104.634 59.4897 104.63 59.4798C104.487 59.0652 104.605 58.7505 104.982 58.5357C105.606 58.1785 106.049 57.6598 106.353 57.0137C106.467 56.7714 106.431 56.5425 106.335 56.3047C105.633 54.5628 104.934 52.8199 104.234 51.0771C104.075 50.6822 104.082 50.6643 104.506 50.6724C105.521 50.693 105.287 50.4893 105.647 51.4675C106.116 52.741 106.629 53.9992 107.026 55.2987C107.04 55.3462 107.063 55.3911 107.1 55.4781H107.098Z" fill="#1680E4"/>
<path opacity="0.99" d="M44.5173 56.0341C44.4168 56.1418 44.3199 56.2558 44.2131 56.3599C43.4817 57.0734 42.612 57.243 41.6679 56.9217C40.8109 56.63 40.4618 55.9058 40.363 55.0748C40.2006 53.6927 40.3209 52.3017 40.2939 50.9151C40.2912 50.7545 40.3675 50.6845 40.5336 50.6683C41.4678 50.5804 41.457 50.5777 41.4696 51.5074C41.4848 52.588 41.4068 53.6712 41.5225 54.7499C41.5513 55.0182 41.6275 55.2713 41.7613 55.5028C42.061 56.0207 42.7233 56.228 43.3506 56.0072C44.0255 55.7703 44.4419 55.1843 44.4464 54.4313C44.4536 53.3086 44.4581 52.1859 44.4428 51.0632C44.4383 50.7518 44.5388 50.654 44.8467 50.6638C45.7378 50.6926 45.6203 50.5463 45.6247 51.45C45.6337 53.1955 45.6328 54.941 45.6454 56.6866C45.6472 56.875 45.5933 56.9441 45.4067 56.9405C44.5613 56.9253 44.5909 57.059 44.5729 56.2109C44.572 56.1544 44.5936 56.0871 44.5155 56.0323L44.5173 56.0341Z" fill="#1680E4"/>
<path opacity="0.99" d="M90.0666 55.6871C90.2784 55.0787 90.4741 54.5258 90.6643 53.9721C91.0062 52.9786 91.3518 51.9861 91.682 50.9881C91.7574 50.7593 91.8678 50.6435 92.1182 50.6668C92.2905 50.683 92.4646 50.6686 92.6387 50.6704C93.0075 50.6731 93.0237 50.6947 92.8936 51.0276C92.4466 52.1674 91.9988 53.3071 91.5519 54.4469C91.2692 55.1684 90.982 55.889 90.711 56.6151C90.6248 56.8457 90.5082 56.9561 90.2434 56.9453C89.3173 56.9103 89.5201 57.0979 89.1773 56.2005C88.5203 54.4854 87.8751 52.7659 87.2262 51.0482C87.0898 50.6866 87.1015 50.665 87.4838 50.6713C88.5365 50.6893 88.2691 50.4972 88.6128 51.4718C89.0848 52.809 89.5829 54.1372 89.9868 55.4978C90.0002 55.5426 90.0227 55.5848 90.0657 55.6862L90.0666 55.6871Z" fill="#1680E4"/>
<path opacity="0.99" d="M30.3154 57.0636C28.341 57.0672 27.1124 55.8359 27.1062 53.9172C27.1008 52.1115 28.105 50.8757 29.8416 50.5877C30.4823 50.4818 31.1231 50.5365 31.7468 50.7393C31.973 50.8129 32.052 50.9251 31.9775 51.171C31.8105 51.7274 31.824 51.7211 31.2864 51.591C30.3962 51.3765 29.5562 51.425 28.8786 52.1393C28 53.0655 28.1014 54.873 29.0886 55.6744C29.8048 56.2559 30.6187 56.2101 31.4453 55.9615C31.8384 55.8431 31.8357 55.8359 31.929 56.2442C32.043 56.7468 32.0439 56.7486 31.5467 56.8931C31.1222 57.0169 30.6896 57.0816 30.3154 57.0636Z" fill="#1680E4"/>
<path opacity="0.99" d="M82.9632 52.383C82.9632 53.7713 82.9552 55.1588 82.9695 56.5471C82.9731 56.8576 82.8744 56.9563 82.5666 56.9465C81.6754 56.9177 81.7903 57.064 81.7885 56.1612C81.784 53.5182 81.7867 50.8744 81.7876 48.2314C81.7876 47.7926 81.7894 47.7881 82.2336 47.7926C83.0727 47.7997 82.9588 47.6885 82.9623 48.5258C82.9677 49.8118 82.9641 51.0978 82.9641 52.383H82.9632Z" fill="#1680E4"/>
<path opacity="0.99" d="M48.3907 51.7796C48.5809 51.496 48.7505 51.2321 48.9883 51.0149C49.1642 50.8543 49.3581 50.7242 49.5807 50.6425C49.8535 50.542 50.2071 50.4244 50.3964 50.6165C50.6127 50.8354 50.4772 51.2169 50.4655 51.5274C50.4602 51.662 50.3291 51.6746 50.2295 51.6602C49.3096 51.5283 48.5854 52.406 48.5728 53.3869C48.5585 54.4378 48.5576 55.4896 48.5692 56.5405C48.5728 56.8411 48.4858 56.9569 48.169 56.947C47.2653 56.9165 47.4008 57.061 47.3954 56.16C47.3873 54.8326 47.3963 53.5062 47.39 52.1789C47.3882 51.7813 47.364 51.3838 47.338 50.9871C47.3218 50.7448 47.4241 50.6631 47.6592 50.6676C48.4732 50.6829 48.3736 50.577 48.3898 51.3838C48.3924 51.5157 48.3898 51.6476 48.3898 51.7796H48.3907Z" fill="#1680E4"/>
<path opacity="0.99" d="M62.1203 51.7803C62.3815 51.3325 62.6794 50.9673 63.1192 50.7294C63.182 50.6953 63.2466 50.6639 63.3139 50.6406C63.5877 50.5455 63.9412 50.4234 64.1288 50.6191C64.3406 50.8398 64.2096 51.2203 64.1943 51.5318C64.188 51.6664 64.0543 51.6745 63.9547 51.6601C63.0555 51.53 62.3232 52.3816 62.3043 53.3598C62.2837 54.4107 62.2962 55.4625 62.2935 56.5134C62.2926 56.9343 62.2873 56.9433 61.8646 56.9397C61.0165 56.9317 61.1287 57.0465 61.1251 56.2164C61.1188 54.8693 61.1269 53.5214 61.1197 52.1743C61.1179 51.7768 61.0919 51.3792 61.0685 50.9825C61.056 50.7662 61.1305 50.6639 61.3629 50.6675C62.2164 50.681 62.1024 50.576 62.1203 51.3873C62.123 51.5174 62.1203 51.6484 62.1203 51.7794V51.7803Z" fill="#1680E4"/>
<path opacity="0.99" d="M101.347 51.7795C101.537 51.4959 101.707 51.232 101.945 51.0148C102.121 50.8542 102.314 50.7241 102.537 50.6424C102.81 50.5419 103.163 50.4243 103.353 50.6155C103.57 50.8344 103.434 51.2159 103.422 51.5264C103.416 51.661 103.286 51.6745 103.186 51.6592C102.266 51.5264 101.542 52.405 101.528 53.385C101.514 54.4359 101.513 55.4877 101.525 56.5386C101.528 56.8383 101.442 56.9559 101.125 56.9451C100.221 56.9146 100.357 57.0591 100.352 56.159C100.344 54.8317 100.353 53.5052 100.346 52.1779C100.345 51.7803 100.32 51.3828 100.294 50.9861C100.278 50.7438 100.379 50.6621 100.615 50.6666C101.43 50.6819 101.33 50.576 101.346 51.3819C101.349 51.5138 101.346 51.6457 101.346 51.7777L101.347 51.7795Z" fill="#1680E4"/>
<path opacity="0.99" d="M52.8693 53.8277C52.8693 54.736 52.8603 55.6442 52.8747 56.5515C52.8792 56.8351 52.8029 56.9544 52.4978 56.9455C51.5734 56.9176 51.6982 57.0666 51.6946 56.1557C51.6883 54.4721 51.6928 52.7885 51.6928 51.1049C51.6928 50.6768 51.6991 50.667 52.1137 50.6714C52.9851 50.6795 52.8612 50.562 52.8675 51.4091C52.8738 52.215 52.8693 53.0209 52.8684 53.8269L52.8693 53.8277Z" fill="#1680E4"/>
<path opacity="0.99" d="M85.9675 53.8221C85.9675 54.7402 85.9594 55.6592 85.9729 56.5773C85.9774 56.8573 85.8832 56.9533 85.6032 56.9461C84.6644 56.9201 84.7973 57.0726 84.7937 56.1321C84.7874 54.4485 84.791 52.7649 84.7919 51.0813C84.7919 50.6811 84.8026 50.6685 85.2056 50.6721C86.0896 50.6811 85.9585 50.5572 85.9657 51.4349C85.9729 52.2309 85.9675 53.027 85.9666 53.8221H85.9675Z" fill="#1680E4"/>
<path opacity="0.99" d="M52.2794 49.6474C51.863 49.6501 51.566 49.3593 51.5633 48.9447C51.5597 48.5274 51.8478 48.2294 52.2606 48.2213C52.694 48.2132 52.9902 48.504 52.9902 48.9402C52.9902 49.3557 52.7003 49.6447 52.2794 49.6474Z" fill="#1680E4"/>
<path opacity="0.99" d="M86.0889 48.9382C86.0889 49.3538 85.7999 49.6436 85.379 49.6472C84.9626 49.6508 84.6655 49.36 84.6611 48.9463C84.6566 48.5173 84.9572 48.2176 85.388 48.2212C85.8053 48.2248 86.088 48.5147 86.0889 48.9382Z" fill="#1680E4"/>
<path d="M16.3348 12.637C16.193 12.5571 16.0791 12.5858 15.9705 12.5858C14.959 12.5831 13.9476 12.5858 12.9371 12.5831C12.2739 12.5813 11.9086 12.2223 11.9059 11.5663C11.9024 10.5046 11.9024 9.44296 11.9059 8.38039C11.9077 7.71897 12.2694 7.35551 12.929 7.35461C15.7075 7.35192 18.486 7.35012 21.2645 7.3582C21.5301 7.3582 21.7258 7.2873 21.9106 7.09346C22.3611 6.6205 22.8323 6.1673 23.2936 5.70332C23.3636 5.63332 23.456 5.57768 23.4856 5.45204C23.3627 5.38652 23.229 5.41704 23.1024 5.41704C18.1997 5.41524 13.2961 5.41345 8.39335 5.41883C8.01015 5.41883 7.68707 5.32998 7.46181 5.00152C7.34155 4.82652 7.30566 4.62998 7.30655 4.41998C7.30925 3.27664 7.30476 2.1324 7.30925 0.989058C7.31194 0.373413 7.68617 0.00276975 8.309 0.00276975C16.0207 0.000974868 23.7333 0.00187231 31.4451 0.00187231C32.7742 0.23431 34.0557 0.586107 35.0878 1.52483C36.0893 2.43573 36.7256 3.55754 36.9239 4.90101C37.2282 6.96602 36.6063 8.74296 35.1416 10.2067C30.4399 14.9066 25.7248 19.593 21.0123 24.2822C20.9208 24.3737 20.7996 24.4347 20.717 24.5406C20.8884 24.6546 21.0213 24.6304 21.1487 24.6304C26.0622 24.6313 30.9748 24.6313 35.8883 24.6313C36.74 24.6313 37.0568 24.9445 37.0568 25.7881C37.0568 26.7887 37.0586 27.7894 37.0568 28.79C37.0559 29.5116 36.7077 29.8607 35.987 29.8607C29.2858 29.8607 22.5855 29.8633 15.8843 29.8553C15.5639 29.8553 15.327 29.9342 15.1053 30.173C14.6701 30.6423 14.2034 31.083 13.743 31.5425C13.8785 31.6564 14.0051 31.6134 14.1208 31.6134C17.6451 31.6161 21.1684 31.6152 24.6927 31.6161C25.5192 31.6161 25.8405 31.9373 25.8405 32.763C25.8405 33.7843 25.8432 34.8047 25.8396 35.826C25.8369 36.4829 25.4735 36.8445 24.8103 36.8445C18.1503 36.8454 11.4904 36.8445 4.83051 36.8472C4.5514 36.8472 4.30551 36.7826 4.09999 36.5906C4.00755 36.5044 3.89268 36.4631 3.7796 36.4147C0.083936 34.8289 -0.783891 30.1631 1.77113 27.2213C2.93601 25.8805 4.25166 24.6788 5.52244 23.4377C5.59513 23.3668 5.67141 23.2977 5.74321 23.2259C9.19836 19.777 12.6535 16.3272 16.1087 12.8784C16.1796 12.8075 16.2469 12.7321 16.3357 12.637H16.3348Z" fill="#00A89C"/>
<path d="M4.98872 12.5228C3.76372 12.5228 2.53871 12.5246 1.3137 12.5228C0.612798 12.5219 0.260104 12.1692 0.259207 11.4692C0.257412 10.4183 0.256514 9.3674 0.259207 8.3165C0.261001 7.65778 0.623568 7.29521 1.28408 7.29431C3.75474 7.29252 6.2245 7.29252 8.69516 7.29431C9.35478 7.29431 9.71734 7.65778 9.71914 8.3174C9.72183 9.37817 9.72183 10.4398 9.71914 11.5006C9.71734 12.1593 9.35478 12.521 8.69426 12.5228C7.45938 12.5255 6.2236 12.5228 4.98872 12.5228Z" fill="#00A89C"/>
<path d="M32.2757 31.6157C33.5007 31.6157 34.7257 31.6139 35.9507 31.6157C36.6336 31.6166 36.9935 31.972 36.9953 32.6487C36.998 33.7094 36.9989 34.7711 36.9953 35.8319C36.9935 36.4735 36.6283 36.8424 35.9911 36.8433C33.5105 36.846 31.03 36.846 28.5495 36.8433C27.9069 36.8433 27.539 36.478 27.5363 35.8408C27.5327 34.7693 27.5327 33.6978 27.5363 32.6271C27.5381 31.9854 27.9024 31.6175 28.5405 31.6157C29.7861 31.6121 31.0309 31.6148 32.2766 31.6148L32.2757 31.6157Z" fill="#00A89C"/>
<path opacity="0.99" d="M2.84572 5.35323C1.98328 5.31015 1.08315 4.8363 0.579681 3.79527C0.0941656 2.79103 0.2575 1.82808 0.963786 0.965638C1.81994 -0.0798798 3.54483 -0.314112 4.73035 0.448713C5.74176 1.09936 6.21292 2.275 5.89881 3.3627C5.5524 4.56348 4.44675 5.35592 2.84572 5.35233V5.35323Z" fill="#1680E4"/>
<path opacity="0.99" fill-rule="evenodd" clip-rule="evenodd" d="M32.2882 0.0223883C34.5488 0.371493 36.1194 1.58035 36.9998 3.64984C37.7231 5.84947 37.3695 7.85794 35.939 9.67436C30.8819 14.6462 25.8365 19.6261 20.8045 24.6141C18.937 26.2896 17.1277 28.0315 15.375 29.8399C14.7926 30.434 14.2101 31.0281 13.6277 31.6231C12.2708 32.8678 10.9389 34.1485 9.63317 35.4659C8.67381 36.2153 7.59149 36.6766 6.38802 36.8489H5.07776C4.66404 36.7672 4.24762 36.6649 3.82942 36.541C1.6953 35.7387 0.437086 34.223 0.0538786 31.9919C-0.166892 30.197 0.290803 28.5987 1.42696 27.1969C6.40148 22.3067 11.3625 17.4094 16.3119 12.5031C16.3577 12.5112 16.3999 12.5013 16.4367 12.4726C18.1984 10.7271 19.9663 8.995 21.7415 7.2773C22.3867 6.62127 23.0311 5.96614 23.6763 5.31011C25.0548 4.04472 26.4064 2.74343 27.7328 1.40624C29.061 0.358929 30.5804 -0.102356 32.2891 0.0232857L32.2882 0.0223883Z" fill="#1680E4"/>
</svg>
