<svg width="94" height="94" viewBox="0 0 94 94" fill="none" xmlns="http://www.w3.org/2000/svg">
<path d="M79.8215 82.7592C79.0381 82.7592 78.294 82.4459 77.7456 81.8976L52.7573 56.9092C51.6214 55.7734 51.6214 53.8934 52.7573 52.7575L83.0331 22.4817C83.7773 21.7376 84.9131 21.4634 85.9314 21.7376C86.9498 22.0509 87.7331 22.8734 87.9681 23.8917C88.7122 27.2209 89.1039 30.9417 89.1039 35.25V58.75C89.1039 69.5992 86.8323 76.9234 81.8973 81.8976C81.3489 82.4459 80.5265 82.5634 79.8215 82.7592ZM58.9848 54.8334L79.5865 75.435C82.054 71.6359 83.2289 66.2309 83.2289 58.75V35.25C83.2289 33.6442 83.1897 32.1559 83.0722 30.7459L58.9848 54.8334Z" fill="#8C8FA5"/>
<path d="M24.5575 88.0466C24.3225 88.0466 24.1267 88.0075 23.8917 87.9683C10.9275 84.9917 4.89583 75.7091 4.89583 58.75V35.25C4.89583 13.9825 13.9825 4.89581 35.25 4.89581H58.75C75.7092 4.89581 84.9916 10.9275 87.9683 23.8917C88.2033 24.8708 87.89 25.9283 87.185 26.6333L26.6333 87.185C26.085 87.7333 25.3408 88.0466 24.5575 88.0466ZM35.25 10.7708C17.1942 10.7708 10.7708 17.1941 10.7708 35.25V58.75C10.7708 72.3408 14.5309 79.1558 23.6567 81.8583L81.8192 23.6958C79.1559 14.57 72.3016 10.81 58.7108 10.81H35.25V10.7708Z" fill="#8C8FA5"/>
<path d="M58.7496 89.1042H35.2496C30.9412 89.1042 27.2596 88.7517 23.8912 87.9684C22.8337 87.7334 22.0112 86.95 21.737 85.9317C21.4237 84.9134 21.737 83.8167 22.4812 83.0333L52.7571 52.7575C53.8929 51.6217 55.7729 51.6217 56.9087 52.7575L81.8971 77.7459C82.4454 78.2942 82.7587 79.0384 82.7587 79.8217C82.7587 80.605 82.4454 81.3492 81.8971 81.8975C76.9229 86.8325 69.5987 89.1042 58.7496 89.1042ZM30.7454 83.0725C32.1554 83.19 33.6437 83.2292 35.2496 83.2292H58.7496C66.2696 83.2292 71.6354 82.0542 75.4346 79.5867L54.8329 58.985L30.7454 83.0725Z" fill="#8C8FA5"/>
<path d="M35.7198 52.1308C33.2523 52.1308 30.7847 51.23 28.8264 49.3891C22.5989 43.475 20.0923 36.9733 21.5807 30.6283C23.069 24.1267 28.7481 19.7399 35.7198 19.7399C42.6914 19.7399 48.3707 24.1267 49.859 30.6283C51.3082 37.0125 48.8014 43.475 42.5739 49.3891C40.6548 51.1908 38.1873 52.1308 35.7198 52.1308ZM27.299 31.9208C26.0456 37.2474 29.6489 42.0258 32.8998 45.12C34.5056 46.6475 36.9731 46.6475 38.5398 45.12C41.7514 42.065 45.3547 37.2866 44.1406 31.9208C43.0831 27.2599 38.9314 25.5758 35.7198 25.5758C32.5081 25.5758 28.3956 27.2599 27.299 31.9208Z" fill="#8C8FA5"/>
<path d="M35.8371 37.1691C33.6829 37.1691 31.9204 35.4066 31.9204 33.2525C31.9204 31.0983 33.6438 29.3358 35.8371 29.3358H35.8763C38.0305 29.3358 39.793 31.0983 39.793 33.2525C39.793 35.4066 37.9913 37.1691 35.8371 37.1691Z" fill="#8C8FA5"/>
</svg>
