<svg width="56" height="56" viewBox="0 0 56 56" fill="none" xmlns="http://www.w3.org/2000/svg">
<rect width="56" height="56" rx="2" fill="#FAFAFA"/>
<path d="M28 22.44V25.77" stroke="#8C8FA5" stroke-width="1.5" stroke-miterlimit="10" stroke-linecap="round"/>
<path d="M28.02 18C24.34 18 21.36 20.98 21.36 24.66V26.76C21.36 27.44 21.08 28.46 20.73 29.04L19.46 31.16C18.68 32.47 19.22 33.93 20.66 34.41C25.44 36 30.61 36 35.39 34.41C36.74 33.96 37.32 32.38 36.59 31.16L35.32 29.04C34.97 28.46 34.69 27.43 34.69 26.76V24.66C34.68 21 31.68 18 28.02 18Z" stroke="#8C8FA5" stroke-width="1.5" stroke-miterlimit="10" stroke-linecap="round"/>
<path d="M31.33 34.82C31.33 36.65 29.83 38.15 28 38.15C27.09 38.15 26.25 37.77 25.65 37.17C25.05 36.57 24.67 35.73 24.67 34.82" stroke="#8C8FA5" stroke-width="1.5" stroke-miterlimit="10"/>
</svg>
