<svg width="24" height="25" viewBox="0 0 24 25" fill="none" xmlns="http://www.w3.org/2000/svg">
<path d="M6.73 20.4351C7.55 19.5551 8.8 19.6251 9.52 20.5851L10.53 21.9351C11.34 23.0051 12.65 23.0051 13.46 21.9351L14.47 20.5851C15.19 19.6251 16.44 19.5551 17.26 20.4351C19.04 22.3351 20.49 21.7051 20.49 19.0451V7.77511C20.5 3.74511 19.56 2.73511 15.78 2.73511H8.22C4.44 2.73511 3.5 3.74511 3.5 7.77511V19.0351C3.5 21.7051 4.96 22.3251 6.73 20.4351Z" stroke="#8C8FA5" stroke-width="1.5" stroke-linecap="round" stroke-linejoin="round"/>
<path d="M8.09607 11.7351H8.10505" stroke="#8C8FA5" stroke-width="2" stroke-linecap="round" stroke-linejoin="round"/>
<path d="M10.8984 11.7351H16.3984" stroke="#8C8FA5" stroke-width="1.5" stroke-linecap="round" stroke-linejoin="round"/>
<path d="M8.09607 7.73511H8.10505" stroke="#8C8FA5" stroke-width="2" stroke-linecap="round" stroke-linejoin="round"/>
<path d="M10.8984 7.73511H16.3984" stroke="#8C8FA5" stroke-width="1.5" stroke-linecap="round" stroke-linejoin="round"/>
</svg>
